<?xml version="1.0" standalone="no"?>
<!DOCTYPE svg PUBLIC "-//W3C//DTD SVG 20010904//EN"
 "http://www.w3.org/TR/2001/REC-SVG-20010904/DTD/svg10.dtd">
<svg version="1.0" xmlns="http://www.w3.org/2000/svg"
 width="1258.000000pt" height="1258.000000pt" viewBox="0 0 1258.000000 1258.000000"
 preserveAspectRatio="xMidYMid meet">
<metadata>
Created by potrace 1.14, written by Peter Selinger 2001-2017
</metadata>
<g transform="translate(0.000000,1258.000000) scale(0.100000,-0.100000)"
fill="#000000" stroke="none">
<path d="M8525 12561 c-92 -33 -133 -60 -221 -146 -53 -52 -204 -236 -204
-249 0 -5 -86 -125 -109 -152 -29 -35 -111 -156 -111 -163 0 -5 -4 -11 -9 -13
-5 -1 -31 -35 -58 -74 -53 -79 -195 -282 -230 -329 -12 -16 -27 -40 -32 -52
-6 -13 -15 -23 -21 -23 -5 0 -10 -7 -10 -15 0 -8 -4 -15 -10 -15 -5 0 -10 -7
-10 -15 0 -8 -4 -15 -10 -15 -5 0 -10 -7 -10 -15 0 -8 -4 -15 -9 -15 -5 0 -13
-9 -16 -20 -3 -11 -12 -26 -18 -32 -20 -21 -179 -251 -190 -275 -6 -13 -14
-23 -18 -23 -4 0 -19 -21 -34 -46 -22 -38 -94 -116 -180 -194 -64 -58 -214
-136 -335 -174 -84 -27 -97 -32 -195 -77 -27 -12 -55 -24 -60 -25 -8 -1 -186
-98 -310 -168 -21 -12 -79 -48 -105 -65 -70 -47 -246 -175 -248 -182 -2 -5
-10 -9 -17 -9 -7 0 -15 -3 -17 -7 -1 -5 -28 -28 -58 -53 -30 -25 -61 -51 -68
-57 -7 -7 -18 -13 -23 -13 -6 0 -7 -4 -4 -10 3 -5 2 -10 -4 -10 -31 0 -393
-399 -424 -467 -6 -13 -14 -23 -19 -23 -4 0 -8 -6 -8 -13 0 -8 -9 -22 -20 -32
-11 -10 -20 -24 -20 -32 0 -7 -4 -13 -9 -13 -5 0 -11 -8 -15 -17 -3 -10 -33
-61 -66 -113 -34 -52 -64 -102 -67 -110 -4 -8 -9 -17 -12 -20 -3 -3 -16 -23
-27 -45 -12 -22 -41 -74 -64 -115 -47 -81 -105 -189 -170 -315 -22 -44 -45
-87 -50 -95 -21 -33 -200 -407 -200 -417 0 -6 -3 -13 -7 -15 -5 -1 -25 -37
-47 -78 -73 -143 -249 -419 -303 -478 -7 -7 -13 -17 -13 -20 0 -4 -10 -18 -22
-32 -13 -14 -39 -46 -58 -71 -56 -73 -153 -189 -254 -304 -96 -110 -502 -515
-515 -515 -7 0 -9 -4 -6 -10 3 -5 2 -10 -3 -10 -13 0 -187 -173 -228 -225
-181 -233 -158 -450 70 -680 50 -50 118 -111 151 -135 33 -25 62 -48 65 -51 3
-3 50 -33 105 -66 93 -55 132 -75 243 -124 106 -48 129 -57 155 -63 l28 -7
-48 -62 c-63 -82 -282 -357 -302 -379 -9 -9 -20 -23 -26 -30 -45 -58 -277
-327 -345 -399 l-35 -37 -50 17 c-109 35 -278 -6 -369 -92 -238 -225 -135
-609 185 -689 111 -28 268 12 355 91 86 78 134 194 130 311 -4 82 -14 137 -27
146 -17 10 -8 30 37 79 63 69 139 156 166 191 13 16 34 40 48 54 14 14 43 48
65 75 22 28 42 52 45 55 3 3 44 52 91 110 46 58 89 110 94 116 6 6 21 26 35
44 14 18 32 41 41 51 9 10 60 77 114 148 l98 129 46 -6 c64 -9 393 -8 468 1
78 9 129 17 173 26 20 4 43 7 53 5 9 -1 17 1 17 5 0 4 6 8 13 8 19 0 115 23
192 46 39 12 72 22 75 22 11 2 86 28 95 34 6 3 15 6 20 7 6 1 52 19 103 39 81
33 95 36 110 24 56 -45 109 -63 192 -63 73 0 96 5 150 32 49 23 132 97 122
107 -10 10 29 -6 88 -37 30 -15 60 -28 67 -28 7 0 13 -4 13 -10 0 -5 4 -10 10
-10 5 0 49 -19 97 -42 49 -24 90 -43 93 -44 3 0 73 -33 155 -73 83 -40 195
-95 250 -121 125 -59 292 -139 504 -241 90 -44 167 -79 172 -79 5 0 9 -5 9
-10 0 -6 3 -9 8 -8 4 1 26 -6 50 -17 40 -18 42 -20 36 -53 -12 -61 -7 -114 16
-167 24 -57 25 -55 -121 -160 -77 -55 -146 -105 -152 -110 -12 -11 -91 -68
-131 -95 -13 -8 -38 -27 -57 -43 -19 -15 -131 -97 -249 -182 -118 -86 -223
-162 -233 -170 -9 -8 -21 -15 -26 -15 -5 0 -11 -3 -13 -7 -3 -7 -127 -102
-188 -143 -12 -8 -34 -25 -48 -37 -15 -13 -30 -23 -33 -23 -3 0 -15 -8 -27
-18 -11 -9 -31 -25 -44 -34 -71 -51 -425 -308 -433 -315 -5 -5 -39 -28 -73
-53 -35 -25 -79 -57 -97 -72 -18 -16 -38 -28 -44 -28 -6 0 -11 -3 -11 -8 0 -6
-52 -45 -118 -87 -9 -5 -25 -18 -36 -28 -12 -10 -70 -53 -131 -97 -60 -43
-121 -87 -135 -97 -14 -11 -104 -77 -200 -147 -96 -70 -182 -132 -190 -139 -9
-7 -38 -28 -65 -47 -28 -19 -57 -40 -65 -47 -8 -7 -93 -69 -188 -138 l-174
-126 -36 28 c-20 15 -55 36 -77 47 -42 20 -161 47 -179 41 -6 -2 -33 -6 -60
-9 -96 -10 -234 -101 -276 -183 -8 -15 -19 -31 -25 -35 -5 -4 -7 -8 -2 -8 4 0
0 -15 -10 -32 -25 -48 -26 -195 -2 -265 10 -30 28 -68 40 -86 32 -47 101 -117
115 -117 7 0 14 -4 16 -8 7 -18 116 -54 178 -59 109 -9 224 29 295 96 35 33
85 89 86 96 0 2 8 24 19 47 33 76 45 199 23 248 -3 8 -5 19 -4 23 0 4 -6 21
-14 37 -15 29 -15 31 12 55 15 13 31 25 35 25 4 0 13 6 20 13 7 7 35 28 63 47
27 19 56 41 65 47 18 15 329 242 360 263 12 8 30 22 41 30 10 8 34 26 54 40
19 14 69 50 109 80 41 30 84 62 96 70 12 8 79 57 148 108 70 51 136 100 147
107 11 8 58 42 105 76 47 34 112 82 145 106 33 23 67 49 75 56 8 8 29 22 45
33 17 10 32 21 35 24 3 3 82 61 175 128 94 67 177 128 185 135 8 8 44 34 79
58 36 24 74 52 85 61 16 13 273 201 445 325 29 21 114 83 151 110 13 10 161
118 328 240 l303 221 55 -25 c39 -18 74 -25 121 -26 66 -2 66 -2 78 -37 7 -19
19 -48 26 -65 7 -16 13 -32 13 -35 1 -6 24 -65 38 -100 20 -47 40 -99 44 -115
1 -5 21 -55 44 -110 22 -55 40 -101 39 -103 0 -1 13 -37 30 -80 34 -85 53
-136 52 -139 0 -2 9 -24 20 -50 12 -27 40 -100 64 -163 46 -124 141 -369 158
-410 5 -14 11 -29 13 -35 2 -10 67 -178 87 -225 5 -14 11 -29 13 -35 1 -5 21
-57 44 -115 23 -58 43 -109 44 -115 2 -5 9 -23 16 -40 6 -16 25 -64 40 -105
15 -41 40 -106 55 -145 15 -38 44 -115 66 -170 21 -55 44 -113 50 -130 7 -16
13 -32 13 -35 1 -3 22 -59 48 -125 26 -66 65 -169 88 -230 23 -60 45 -119 50
-130 5 -11 21 -51 36 -90 55 -143 127 -331 140 -365 12 -35 12 -35 -34 -82
-50 -49 -72 -74 -72 -81 0 -3 -8 -22 -17 -43 -24 -57 -25 -62 -25 -146 0 -61
6 -90 26 -133 88 -193 313 -268 504 -168 17 10 32 22 32 27 0 5 3 7 6 4 5 -5
31 19 70 65 11 13 37 57 40 67 0 3 4 12 7 20 14 30 25 113 21 153 -10 97 -43
168 -111 234 l-37 35 13 71 c7 40 14 83 16 97 3 14 7 36 10 50 3 14 8 45 11
70 3 25 8 54 11 65 8 36 11 59 17 105 3 25 8 54 10 65 5 28 15 94 21 135 2 19
7 53 10 75 3 22 8 58 10 79 3 21 7 55 9 75 3 20 8 56 11 81 3 25 7 61 9 80 2
19 7 62 11 95 3 33 8 76 10 95 3 19 7 64 10 100 3 36 8 86 10 112 5 51 14 165
20 268 2 36 7 106 10 155 25 397 25 1204 0 1610 -2 39 -6 106 -9 150 -5 77
-12 171 -22 285 -2 30 -7 80 -9 110 -4 52 -8 81 -20 188 -5 43 -5 43 22 38 16
-3 55 -12 88 -22 33 -9 67 -17 75 -19 8 -2 35 -8 59 -15 23 -6 45 -9 48 -6 3
3 13 1 22 -3 16 -9 58 -16 156 -27 28 -3 61 -8 75 -10 46 -9 380 -15 380 -7 0
5 -55 118 -122 253 -124 248 -138 277 -159 340 -7 19 -15 40 -19 45 -4 6 -22
53 -40 105 -18 52 -38 109 -45 125 -7 17 -25 68 -40 115 -14 47 -30 94 -35
105 -8 19 -39 118 -45 140 -2 11 -6 24 -24 75 -7 19 -14 42 -16 51 -2 8 -10
39 -19 69 -9 29 -15 54 -13 56 1 1 20 -4 42 -12 22 -8 56 -17 75 -20 19 -3 40
-9 45 -12 6 -4 15 -7 20 -8 6 -1 40 -9 78 -18 37 -9 82 -18 100 -21 17 -3 39
-8 47 -10 20 -6 185 -26 228 -28 12 -1 22 -3 22 -6 0 -4 34 -7 74 -8 l74 -2
-40 77 c-22 42 -44 82 -48 87 -4 6 -24 42 -45 80 -45 83 -136 250 -175 320
-15 28 -56 102 -90 165 -35 63 -72 131 -83 150 -11 19 -35 64 -55 100 -19 36
-46 85 -60 110 -14 25 -38 70 -55 100 -16 30 -35 64 -42 75 -83 137 -159 311
-181 420 -15 74 -11 322 8 430 17 106 24 145 28 155 2 3 2 9 1 13 -1 4 3 16 8
25 5 9 11 31 14 47 7 40 73 228 103 290 22 47 76 135 99 162 5 6 21 28 35 48
14 20 35 47 48 60 12 13 22 27 22 29 0 5 22 33 55 70 6 6 23 29 39 51 17 22
33 42 36 45 3 3 28 37 55 75 27 39 52 72 55 75 22 20 150 245 150 265 0 7 7
18 15 25 8 7 15 18 15 25 0 7 7 29 15 49 8 20 15 37 14 38 0 2 4 15 10 31 6
15 13 38 15 50 3 12 7 33 10 46 24 111 22 269 -6 376 -5 22 -11 47 -13 55 -7
36 -40 120 -67 174 -65 129 -140 226 -246 318 -33 29 -142 94 -142 84 0 -3
-15 1 -32 9 -58 24 -137 13 -224 -29 -44 -21 -89 -48 -101 -59 -13 -11 -23
-17 -23 -14 0 4 -8 0 -17 -7 -10 -8 -65 -50 -123 -93 -123 -91 -184 -139 -220
-170 -27 -25 -49 -31 -31 -10 6 8 9 16 6 18 -2 3 2 33 10 67 8 34 17 79 20 99
3 21 7 49 9 63 17 100 25 178 30 276 2 45 6 86 10 92 3 5 3 12 -1 16 -3 3 -8
48 -9 98 -5 148 -11 193 -46 313 -24 84 -53 149 -85 193 -13 17 -20 32 -16 32
4 0 4 4 -2 8 -15 11 -55 70 -55 81 0 5 -4 11 -8 13 -5 2 -23 26 -42 53 -18 28
-36 52 -40 55 -3 3 -17 21 -30 40 -75 107 -286 314 -393 384 -170 113 -330
150 -452 107z m-174 -628 c16 -19 17 -22 72 -145 54 -118 110 -162 207 -161
59 0 154 18 200 36 8 3 35 12 60 18 57 16 47 13 100 28 183 53 300 14 326
-109 17 -80 9 -295 -16 -450 -16 -95 -18 -108 -24 -128 -3 -9 -7 -33 -10 -52
-5 -34 -18 -97 -30 -150 -3 -14 -9 -41 -12 -60 -3 -19 -10 -49 -15 -67 -6 -17
-12 -44 -15 -60 -3 -15 -12 -55 -21 -88 -8 -33 -17 -71 -20 -85 -2 -14 -16
-72 -30 -129 -14 -57 -27 -111 -28 -120 -2 -9 -4 -16 -5 -16 -2 0 -5 -14 -13
-55 -3 -14 -13 -54 -22 -90 -9 -36 -18 -72 -20 -80 -7 -35 -51 -311 -59 -370
-3 -19 -8 -46 -11 -60 -3 -14 -8 -44 -11 -66 -2 -23 -7 -53 -9 -65 -6 -27 -11
-58 -19 -109 -3 -19 -8 -46 -10 -60 -3 -14 -7 -41 -10 -60 -3 -19 -8 -46 -10
-60 -3 -14 -8 -43 -11 -65 -4 -22 -9 -53 -11 -70 -3 -16 -7 -42 -9 -57 -2 -15
-11 -71 -20 -125 -9 -54 -19 -111 -21 -128 -3 -16 -7 -43 -10 -60 -3 -16 -7
-39 -9 -50 -13 -84 -16 -103 -21 -125 -3 -14 -8 -44 -10 -68 -2 -24 -6 -46 -8
-50 -3 -5 -7 -32 -11 -62 -3 -29 -8 -56 -9 -59 -2 -3 -7 -30 -11 -60 -4 -30
-11 -64 -15 -77 -5 -12 -7 -24 -5 -26 3 -2 -2 -45 -11 -94 -8 -49 -17 -100
-19 -113 -5 -29 1 -25 -70 -40 -80 -18 -127 -43 -180 -96 -61 -62 -97 -141
-103 -223 -4 -65 -13 -82 -47 -88 -12 -2 -173 -53 -195 -61 -8 -3 -19 -7 -25
-8 -20 -5 -151 -47 -191 -61 -23 -8 -51 -16 -63 -19 -11 -2 -26 -7 -31 -10 -5
-3 -18 -8 -29 -10 -18 -3 -241 -71 -271 -82 -8 -3 -19 -7 -25 -8 -5 -2 -55
-17 -110 -35 -55 -18 -104 -33 -110 -35 -5 -1 -17 -5 -25 -8 -77 -28 -76 -29
-114 21 -60 76 -156 133 -246 144 -26 3 -34 28 -45 143 -2 28 -6 64 -9 80 -7
42 -15 103 -21 155 -3 25 -7 61 -10 80 -3 19 -8 55 -10 80 -3 25 -7 59 -10 75
-2 17 -7 55 -10 85 -6 53 -10 82 -19 125 -3 16 -14 105 -21 180 -1 9 -9 64
-22 160 -7 54 -9 70 -18 145 -4 36 -9 74 -11 85 -2 11 -6 40 -9 65 -3 25 -8
61 -11 80 -17 124 -20 146 -29 240 -6 65 -6 65 35 115 23 28 60 77 82 110 23
33 44 62 48 65 6 5 46 74 92 160 13 25 38 81 57 125 18 44 38 94 45 110 8 17
13 32 12 35 0 3 9 19 20 35 12 17 34 54 49 84 14 29 31 59 36 65 6 6 20 29 32
52 20 38 283 495 334 582 12 20 26 44 30 52 30 57 98 176 102 180 3 3 11 14
17 25 49 91 60 111 67 116 5 3 9 12 11 20 2 14 40 80 83 145 12 19 19 34 15
34 -4 0 -2 4 3 8 10 7 27 36 67 113 13 24 26 46 29 49 3 3 23 37 44 75 21 39
42 72 46 73 5 2 9 12 9 23 0 10 5 19 10 19 6 0 10 4 10 10 0 17 99 178 177
289 139 196 160 215 194 174z m2032 -1362 c147 -49 257 -409 193 -636 -1 -5
-6 -25 -10 -42 -9 -39 -64 -153 -116 -243 -44 -75 -150 -221 -300 -411 -58
-74 -126 -166 -153 -206 -46 -70 -113 -200 -122 -239 -3 -10 -21 -66 -41 -124
-20 -58 -38 -116 -40 -130 -3 -13 -14 -60 -24 -105 -10 -44 -21 -100 -25 -125
-3 -25 -8 -56 -10 -70 -16 -103 -22 -301 -11 -378 3 -18 8 -52 11 -75 5 -35
15 -79 39 -172 2 -5 8 -23 14 -38 7 -16 12 -31 12 -35 0 -7 15 -37 82 -162 19
-36 56 -105 83 -155 26 -49 51 -94 55 -100 7 -10 34 -59 105 -190 21 -38 53
-96 71 -128 19 -32 34 -59 34 -61 0 -1 29 -56 65 -121 l65 -118 -37 7 c-21 4
-51 9 -68 12 -16 3 -35 10 -41 15 -6 5 -13 7 -16 4 -5 -6 -202 57 -263 84 -22
10 -55 24 -72 32 -18 8 -33 17 -33 21 0 5 -7 8 -15 8 -9 0 -18 7 -21 15 -4 8
-10 15 -15 15 -5 0 -31 17 -57 38 -27 20 -59 45 -73 55 -20 14 -201 147 -309
227 -14 10 -72 53 -130 95 -58 42 -107 80 -110 83 -3 4 -24 20 -47 35 -45 28
-49 37 -34 65 8 16 23 89 24 117 1 33 -15 121 -23 129 -6 6 -10 16 -10 23 0
37 -113 155 -166 175 -31 11 -38 19 -35 40 0 3 3 19 5 35 3 15 8 46 11 68 8
53 35 213 41 245 5 26 9 52 19 123 3 23 8 49 10 57 2 8 7 40 10 70 4 30 9 58
11 62 3 5 7 27 10 51 2 23 6 53 9 67 8 39 13 67 31 188 3 20 7 44 9 52 2 8 7
35 10 60 7 53 13 85 15 85 1 0 3 14 5 30 2 17 15 100 29 185 15 85 29 173 32
195 3 22 8 51 11 65 3 14 7 36 9 50 2 14 5 39 8 55 3 17 9 50 12 75 17 128 12
119 98 172 77 48 242 168 295 215 14 12 31 26 36 30 31 24 111 88 115 93 3 3
34 30 70 59 36 30 67 57 70 60 3 4 43 38 90 76 47 38 92 76 101 85 9 8 31 26
49 40 18 14 49 38 69 53 96 76 190 99 284 68z m-3093 -43 c-12 -18 -24 -41
-27 -50 -3 -10 -10 -18 -16 -18 -6 0 -7 -3 -4 -6 4 -4 -2 -19 -12 -33 -15 -23
-60 -100 -128 -221 -11 -19 -44 -77 -74 -128 -77 -134 -110 -191 -144 -251
-26 -47 -41 -60 -146 -122 -65 -38 -121 -69 -125 -69 -4 0 -15 -6 -23 -14 -9
-7 -41 -27 -71 -43 -30 -17 -72 -40 -92 -52 -52 -29 -88 -49 -198 -112 -52
-29 -96 -57 -98 -61 -2 -5 -10 -8 -18 -8 -8 0 -20 -5 -27 -10 -13 -12 -178
-110 -184 -110 -2 0 -47 -25 -101 -56 -110 -64 -121 -71 -252 -145 -52 -29
-97 -56 -100 -59 -5 -6 -100 -57 -137 -75 -13 -5 -23 -13 -23 -17 0 -5 -5 -8
-10 -8 -6 0 -39 -17 -73 -38 -97 -59 -102 -59 -71 -5 37 67 171 280 210 336
19 26 34 51 34 57 0 5 6 13 13 17 7 4 21 21 30 36 10 16 26 36 35 46 9 9 35
39 57 66 39 48 215 227 269 273 65 55 208 164 291 222 90 63 266 174 275 175
3 0 30 14 60 32 30 17 96 50 145 73 50 23 99 46 110 51 11 5 62 23 112 39 104
33 276 113 303 140 3 3 25 19 50 35 45 30 73 53 139 112 45 41 48 41 21 1z
m-865 -1224 c3 -32 7 -70 10 -84 3 -14 7 -45 10 -70 3 -25 8 -58 10 -75 3 -16
7 -52 10 -80 3 -27 8 -61 10 -75 8 -51 32 -234 39 -300 5 -49 16 -130 21 -159
3 -14 7 -51 10 -84 4 -32 8 -66 10 -75 6 -33 15 -98 20 -142 3 -25 8 -67 12
-95 3 -27 7 -61 8 -75 2 -14 4 -25 5 -25 1 0 3 -16 5 -35 4 -40 10 -90 26
-205 6 -44 12 -95 14 -114 3 -19 7 -50 10 -70 13 -90 15 -109 21 -156 3 -27 7
-66 10 -85 13 -107 15 -99 -32 -121 -109 -52 -190 -168 -201 -287 l-6 -61 -51
-13 c-28 -7 -55 -13 -61 -14 -5 -1 -13 -2 -17 -3 -5 0 -9 -1 -10 0 -2 0 -16
-4 -31 -10 -15 -6 -40 -13 -55 -16 -42 -7 -61 -12 -147 -35 -44 -12 -89 -24
-100 -26 -60 -12 -67 -14 -305 -74 -113 -28 -214 -53 -225 -55 -16 -4 -229
-56 -285 -70 -8 -2 -15 -4 -15 -5 0 -1 -9 -3 -20 -5 -11 -3 -31 -6 -45 -9 -14
-3 -117 -28 -230 -56 -113 -29 -212 -53 -221 -55 -9 -2 -33 -8 -52 -13 -31 -9
-37 -8 -42 8 -10 32 -90 106 -141 129 -66 31 -179 34 -249 6 -49 -19 -122 -85
-147 -132 -88 -160 -30 -347 133 -430 46 -23 66 -27 134 -27 94 0 156 25 218
87 34 34 89 133 86 155 -1 4 0 9 1 12 1 3 3 18 4 34 0 17 7 30 16 32 8 2 25 5
38 8 12 3 30 8 40 10 9 2 94 23 187 46 94 23 177 44 185 46 121 29 238 57 250
59 8 2 17 4 20 6 3 1 10 3 15 4 6 1 22 5 36 9 14 4 34 9 45 11 10 2 19 4 19 6
0 1 9 3 20 5 11 1 76 17 145 34 69 18 133 34 143 36 9 2 26 6 37 9 11 3 28 7
38 9 9 2 37 9 62 16 49 13 46 13 105 25 55 12 55 12 58 15 1 1 9 3 17 5 8 2
26 6 40 9 14 3 34 7 45 10 74 20 112 29 125 30 8 2 25 6 37 10 12 4 30 9 40
11 10 2 42 10 72 18 63 17 73 15 92 -19 13 -25 5 -33 -390 -428 -374 -374
-406 -403 -430 -396 -83 23 -223 -23 -294 -96 -41 -42 -87 -129 -88 -166 -1
-48 -15 -60 -107 -99 -51 -21 -92 -36 -92 -33 0 3 -10 -1 -22 -8 -13 -6 -27
-13 -33 -14 -5 -1 -41 -11 -80 -24 -38 -12 -81 -24 -95 -26 -14 -3 -43 -10
-65 -16 -169 -44 -468 -64 -660 -44 -44 5 -88 10 -97 10 -10 1 -21 5 -24 9 -4
4 -22 7 -39 7 -17 0 -35 3 -39 7 -3 4 -14 8 -24 9 -33 4 -131 34 -177 54 -22
9 -57 22 -65 25 -3 0 -32 14 -65 30 -195 93 -410 264 -474 377 -29 50 -41 141
-21 153 6 3 8 10 5 15 -7 11 132 151 295 300 133 121 439 427 520 519 30 34
71 80 90 100 19 21 46 53 60 72 14 18 37 47 51 63 91 108 287 391 357 515 8
13 23 40 34 60 11 20 25 42 30 49 6 6 7 12 2 12 -5 0 -4 4 2 8 6 4 31 48 56
97 25 50 50 100 56 110 7 11 48 97 93 190 44 94 110 229 146 302 l67 131 215
124 c118 67 220 124 228 126 7 2 13 8 13 13 0 5 4 9 9 9 5 0 64 32 131 70 67
39 126 70 131 70 5 0 9 4 9 9 0 5 10 13 23 17 12 3 33 14 47 24 14 9 50 31 80
47 30 17 127 72 215 123 88 51 189 108 225 128 36 19 74 41 84 48 11 8 21 12
23 11 1 -2 5 -30 8 -63z m2010 -2109 c22 -22 50 -48 62 -57 l22 -17 -20 -63
c-12 -35 -23 -70 -27 -78 -3 -8 -7 -19 -7 -25 -1 -5 -5 -17 -8 -25 -11 -28
-30 -95 -28 -98 1 -1 -6 -16 -14 -32 -8 -16 -15 -32 -14 -35 1 -6 -44 -155
-72 -235 -10 -30 -41 -129 -69 -220 -28 -91 -54 -172 -57 -180 -3 -8 -7 -19
-8 -25 -2 -5 -20 -62 -40 -125 -21 -63 -38 -119 -40 -125 -1 -5 -5 -17 -8 -25
-7 -21 -69 -213 -72 -225 -1 -5 -5 -17 -8 -25 -10 -26 -106 -335 -107 -342 0
-5 -9 -32 -19 -60 -20 -54 -62 -191 -63 -205 -1 -5 -8 -24 -16 -42 -7 -19 -15
-42 -17 -50 -11 -56 -23 -69 -65 -69 -43 -1 -49 6 -80 93 -4 11 -14 36 -22 55
-9 20 -28 67 -42 105 -15 39 -31 78 -37 87 -5 10 -9 25 -9 33 0 8 -5 15 -12
15 -6 0 -9 3 -6 6 4 3 -5 31 -19 62 -14 31 -26 64 -28 73 -2 9 -12 36 -23 60
-18 39 -80 193 -256 634 -31 77 -60 149 -65 160 -26 57 -75 191 -73 198 1 4
-3 7 -8 7 -6 0 -10 6 -10 14 0 8 -12 42 -27 76 -25 59 -26 61 -7 74 47 34 138
146 118 146 -4 0 -2 6 3 13 14 17 25 64 28 120 1 26 6 52 11 56 8 7 95 39 129
47 6 2 19 5 30 8 11 2 34 10 50 16 17 6 37 13 45 15 8 2 51 15 95 30 44 14 90
28 102 31 12 2 67 20 123 38 55 19 100 32 100 30 0 -3 9 0 21 6 11 6 28 13 37
15 17 4 153 46 272 85 36 11 72 22 80 24 8 2 22 6 30 9 66 25 75 25 90 3 8
-11 33 -39 55 -61z m607 -93 c133 -98 299 -220 327 -240 13 -9 45 -34 72 -54
27 -21 53 -38 58 -38 5 0 11 -4 13 -8 2 -5 44 -38 94 -75 l92 -67 16 -68 c9
-37 18 -76 21 -87 2 -11 8 -35 14 -52 5 -18 7 -33 4 -33 -3 0 -1 -6 5 -13 6
-7 12 -28 14 -45 1 -18 5 -32 9 -32 4 0 9 -15 12 -32 6 -38 15 -70 52 -188 14
-47 28 -89 29 -95 2 -5 6 -17 9 -25 3 -8 20 -60 37 -115 17 -55 35 -109 39
-120 5 -11 23 -63 40 -115 18 -52 36 -104 41 -115 5 -11 22 -56 38 -100 16
-44 33 -89 37 -100 5 -11 9 -22 10 -25 1 -3 6 -16 12 -30 6 -14 12 -29 14 -35
2 -5 15 -35 30 -65 16 -33 23 -57 17 -61 -10 -6 -115 14 -148 28 -8 3 -18 6
-21 5 -12 -2 -273 130 -316 159 -23 16 -45 29 -48 29 -4 0 -84 52 -177 116
-94 63 -168 109 -165 101 3 -7 23 -72 45 -143 36 -115 48 -175 58 -279 2 -16
5 -46 8 -65 2 -19 7 -64 10 -100 4 -36 8 -78 11 -95 2 -16 6 -56 9 -87 3 -32
9 -84 12 -115 3 -32 7 -71 9 -88 5 -41 20 -265 30 -465 23 -426 23 -1343 1
-1378 -3 -6 -2 -13 4 -17 6 -4 7 -11 4 -17 -4 -6 -8 -41 -10 -77 -3 -77 -13
-246 -14 -246 -1 0 -3 -27 -5 -60 -5 -74 -21 -248 -30 -335 -2 -25 -7 -72 -10
-105 -9 -83 -13 -124 -20 -165 -2 -19 -7 -55 -9 -80 -6 -62 -16 -140 -21 -170
-3 -14 -7 -43 -10 -65 -3 -22 -8 -51 -10 -65 -3 -14 -7 -38 -9 -55 -3 -16 -8
-48 -11 -70 -4 -22 -8 -51 -10 -65 -18 -116 -26 -169 -44 -264 -11 -59 -22
-110 -24 -112 -2 -2 -16 29 -31 68 -15 40 -31 82 -36 93 -4 11 -15 38 -23 60
-13 34 -69 179 -96 250 -5 11 -18 45 -30 75 -13 30 -24 60 -25 65 -2 6 -8 23
-14 38 -7 16 -12 30 -12 31 0 2 -8 21 -17 42 -9 22 -16 45 -14 52 1 6 -4 12
-10 12 -7 0 -10 3 -7 6 4 3 -2 24 -12 47 -17 41 -32 77 -35 87 -1 3 -7 18 -13
33 -7 16 -12 31 -12 34 0 2 -20 55 -44 116 -112 288 -136 353 -136 360 1 4 -6
20 -14 35 -8 15 -29 65 -46 112 -18 47 -36 94 -40 105 -5 11 -27 70 -50 130
-22 61 -45 119 -50 130 -4 11 -23 58 -40 105 -18 47 -38 99 -45 115 -7 17 -20
53 -30 80 -10 28 -24 65 -32 83 -8 18 -23 56 -33 85 -18 54 -85 227 -100 262
-5 11 -21 52 -35 90 -15 39 -37 97 -50 130 -33 84 -186 483 -200 522 -6 18
-14 36 -18 39 -15 15 -6 43 21 66 29 25 70 85 77 115 3 10 8 34 13 53 13 53 5
124 -20 178 -25 53 -75 115 -101 125 -20 7 -22 34 -6 74 6 15 13 39 15 52 3
14 8 29 12 35 3 6 7 16 8 21 2 11 51 169 62 195 3 8 6 18 7 23 2 4 3 8 5 10 1
1 3 9 5 17 1 8 21 74 45 145 23 72 43 135 44 140 2 6 6 17 9 25 6 15 70 220
72 230 2 9 76 243 90 285 8 22 37 114 66 205 28 91 63 199 76 240 14 41 26 82
28 90 2 8 4 15 5 15 1 0 3 7 5 15 3 16 34 115 90 285 52 160 69 220 67 227 -1
4 19 7 46 7 84 -1 185 32 232 77 19 19 24 17 132 -64z m-2394 -566 c70 -36
166 -51 204 -34 20 10 38 -13 63 -82 9 -25 21 -54 26 -65 44 -102 57 -135 53
-135 -2 0 2 -12 10 -27 15 -31 426 -1052 430 -1068 1 -5 5 -15 8 -21 12 -19
52 -129 50 -136 -1 -5 2 -8 8 -8 5 0 10 -6 10 -12 0 -7 16 -51 35 -98 l34 -84
-32 -28 c-18 -15 -35 -27 -39 -28 -4 0 -61 26 -125 57 -65 31 -120 57 -123 58
-4 1 -134 63 -425 205 -49 24 -92 44 -95 44 -3 1 -45 21 -93 44 -48 24 -149
72 -224 108 -75 36 -167 81 -205 99 -37 19 -68 31 -68 27 0 -4 -4 -2 -8 3 -4
6 -48 30 -99 54 l-91 44 1 56 c1 101 -23 167 -88 240 l-34 38 382 385 c210
212 383 386 385 387 1 0 24 -10 50 -23z"/>
<path d="M4557 3839 c-132 -20 -227 -123 -233 -253 -6 -136 64 -234 201 -282
44 -16 120 -10 175 14 130 55 195 191 156 326 -16 54 -25 68 -73 122 -49 53
-146 85 -226 73z"/>
<path d="M1805 3031 c-116 -36 -151 -188 -62 -272 45 -43 115 -55 171 -30 48
23 71 49 89 101 23 68 -1 135 -64 182 -25 19 -100 30 -134 19z"/>
<path d="M6977 2278 c-166 -35 -262 -202 -207 -360 62 -179 287 -241 432 -119
62 52 91 112 94 193 4 114 -45 206 -139 257 -47 26 -130 39 -180 29z"/>
</g>
</svg>
